<svg width="1024" height="1024" viewBox="0 0 1024 1024" fill="none" xmlns="http://www.w3.org/2000/svg">
<rect width="1024" height="1024" rx="128" fill="#F5F5F4"/>
<path d="M215.893 824.199C186.535 824.199 162.789 815.996 144.656 799.59C126.523 783.616 117.456 759.438 117.456 727.058C117.456 712.379 118.536 699.211 120.694 687.554C123.285 675.465 125.659 663.16 127.818 650.64C130.409 638.119 131.704 623.44 131.704 606.603C131.704 591.06 127.171 576.597 118.104 563.213C109.037 549.397 91.3361 539.683 65 534.07V490.033C91.3361 484.42 109.037 474.922 118.104 461.538C127.171 448.154 131.704 433.475 131.704 417.501C131.704 401.095 130.409 386.631 127.818 374.111C125.659 361.591 123.285 349.502 120.694 337.845C118.536 325.756 117.456 312.372 117.456 297.693C117.456 264.881 126.523 240.488 144.656 224.513C162.789 208.539 186.535 200.552 215.893 200.552H250.216V247.18H225.607C207.474 247.18 193.658 251.497 184.16 260.132C175.094 268.335 170.56 282.366 170.56 302.226C170.56 314.747 171.64 326.836 173.798 338.492C175.957 349.718 178.116 361.806 180.274 374.759C182.865 387.279 184.16 402.174 184.16 419.444C184.16 442.326 178.332 461.97 166.675 478.376C155.449 494.782 137.316 505.791 112.275 511.404V512.699C137.316 518.744 155.449 529.969 166.675 546.375C178.332 562.781 184.16 582.425 184.16 605.307C184.16 622.145 182.865 637.04 180.274 649.992C178.116 662.513 175.957 674.601 173.798 686.258C171.64 697.484 170.56 709.572 170.56 722.524C170.56 741.953 175.094 755.984 184.16 764.619C193.658 773.254 207.474 777.571 225.607 777.571H250.216V824.199H215.893Z" fill="#F97316"/>
<path d="M567.962 824.717L423.841 644.207V824.717H316.518V200.034H423.841V580.723L566.428 400.978H705.949L518.899 613.613L707.482 824.717H567.962Z" fill="#312E81"/>
<path d="M808.107 824.199C837.465 824.199 861.211 815.996 879.344 799.59C897.477 783.616 906.544 759.438 906.544 727.058C906.544 712.379 905.464 699.211 903.306 687.554C900.715 675.465 898.341 663.16 896.182 650.64C893.591 638.119 892.296 623.44 892.296 606.603C892.296 591.06 896.83 576.597 905.896 563.213C914.963 549.397 932.664 539.683 959 534.07V490.033C932.664 484.42 914.963 474.922 905.896 461.538C896.83 448.154 892.296 433.475 892.296 417.501C892.296 401.095 893.591 386.631 896.182 374.111C898.341 361.591 900.715 349.502 903.306 337.845C905.464 325.756 906.544 312.372 906.544 297.693C906.544 264.881 897.477 240.488 879.344 224.513C861.211 208.539 837.465 200.552 808.107 200.552H773.784V247.18H798.393C816.526 247.18 830.342 251.497 839.84 260.132C848.906 268.335 853.44 282.366 853.44 302.226C853.44 314.747 852.36 326.836 850.202 338.492C848.043 349.718 845.884 361.806 843.726 374.759C841.135 387.279 839.84 402.174 839.84 419.444C839.84 442.326 845.668 461.97 857.325 478.376C868.551 494.782 886.684 505.791 911.725 511.404V512.699C886.684 518.744 868.551 529.969 857.325 546.375C845.668 562.781 839.84 582.425 839.84 605.307C839.84 622.145 841.135 637.04 843.726 649.992C845.884 662.513 848.043 674.601 850.202 686.258C852.36 697.484 853.44 709.572 853.44 722.524C853.44 741.953 848.906 755.984 839.84 764.619C830.342 773.254 816.526 777.571 798.393 777.571H773.784V824.199H808.107Z" fill="#F97316"/>
</svg>
