<svg width="100" height="30" viewBox="0 0 100 30" fill="none" xmlns="http://www.w3.org/2000/svg">
<path d="M20.2987 24.0536L15.831 18.4452V24.0536H12.5039V6.46776H15.831V16.4727L20.2512 10.888H24.5764L18.7778 17.4946L24.6239 24.0536H20.2987Z" fill="#312E81"/>
<path d="M25.5266 17.4233C25.5266 16.0925 25.788 14.9122 26.3108 13.8823C26.8495 12.8525 27.5704 12.0604 28.4734 11.5059C29.3923 10.9514 30.4142 10.6741 31.5391 10.6741C32.5213 10.6741 33.3769 10.8721 34.1057 11.2682C34.8503 11.6643 35.4444 12.1634 35.888 12.7654V10.888H39.2388V24.0536H35.888V22.1287C35.4602 22.7466 34.8661 23.2615 34.1057 23.6734C33.361 24.0695 32.4976 24.2675 31.5153 24.2675C30.4063 24.2675 29.3923 23.9823 28.4734 23.412C27.5704 22.8416 26.8495 22.0416 26.3108 21.0118C25.788 19.9661 25.5266 18.77 25.5266 17.4233ZM35.888 17.4708C35.888 16.6628 35.7296 15.9736 35.4127 15.4033C35.0958 14.8171 34.6681 14.3735 34.1294 14.0725C33.5907 13.7556 33.0125 13.5972 32.3946 13.5972C31.7767 13.5972 31.2064 13.7477 30.6835 14.0487C30.1607 14.3497 29.7329 14.7933 29.4002 15.3795C29.0834 15.9499 28.9249 16.6311 28.9249 17.4233C28.9249 18.2154 29.0834 18.9125 29.4002 19.5146C29.7329 20.1008 30.1607 20.5523 30.6835 20.8692C31.2222 21.186 31.7926 21.3445 32.3946 21.3445C33.0125 21.3445 33.5907 21.194 34.1294 20.8929C34.6681 20.5761 35.0958 20.1325 35.4127 19.5621C35.7296 18.9759 35.888 18.2788 35.888 17.4708Z" fill="#312E81"/>
<path d="M41.6327 17.4233C41.6327 16.0925 41.8942 14.9122 42.417 13.8823C42.9557 12.8525 43.6844 12.0604 44.6033 11.5059C45.5222 10.9514 46.5441 10.6741 47.669 10.6741C48.5245 10.6741 49.3404 10.8642 50.1168 11.2445C50.8931 11.6089 51.5109 12.1 51.9704 12.7179V6.46776H55.345V24.0536H51.9704V22.1049C51.5585 22.7545 50.9802 23.2773 50.2356 23.6734C49.4909 24.0695 48.6275 24.2675 47.6452 24.2675C46.5362 24.2675 45.5222 23.9823 44.6033 23.412C43.6844 22.8416 42.9557 22.0416 42.417 21.0118C41.8942 19.9661 41.6327 18.77 41.6327 17.4233ZM51.9942 17.4708C51.9942 16.6628 51.8357 15.9736 51.5189 15.4033C51.202 14.8171 50.7742 14.3735 50.2356 14.0725C49.6969 13.7556 49.1186 13.5972 48.5007 13.5972C47.8829 13.5972 47.3125 13.7477 46.7897 14.0487C46.2669 14.3497 45.8391 14.7933 45.5064 15.3795C45.1895 15.9499 45.0311 16.6311 45.0311 17.4233C45.0311 18.2154 45.1895 18.9125 45.5064 19.5146C45.8391 20.1008 46.2669 20.5523 46.7897 20.8692C47.3284 21.186 47.8987 21.3445 48.5007 21.3445C49.1186 21.3445 49.6969 21.194 50.2356 20.8929C50.7742 20.5761 51.202 20.1325 51.5189 19.5621C51.8357 18.9759 51.9942 18.2788 51.9942 17.4708Z" fill="#312E81"/>
<path d="M64.4406 24.2675C63.1731 24.2675 62.0324 23.9903 61.0184 23.4358C60.0045 22.8654 59.2044 22.0653 58.6182 21.0355C58.0478 20.0057 57.7627 18.8175 57.7627 17.4708C57.7627 16.1242 58.0558 14.9359 58.642 13.9061C59.244 12.8763 60.0599 12.0842 61.0897 11.5296C62.1195 10.9593 63.2682 10.6741 64.5356 10.6741C65.8031 10.6741 66.9517 10.9593 67.9815 11.5296C69.0113 12.0842 69.8193 12.8763 70.4055 13.9061C71.0075 14.9359 71.3086 16.1242 71.3086 17.4708C71.3086 18.8175 70.9996 20.0057 70.3817 21.0355C69.7797 22.0653 68.9558 22.8654 67.9102 23.4358C66.8804 23.9903 65.7238 24.2675 64.4406 24.2675ZM64.4406 21.3682C65.0426 21.3682 65.605 21.2256 66.1278 20.9405C66.6665 20.6394 67.0943 20.1958 67.4111 19.6096C67.728 19.0234 67.8864 18.3105 67.8864 17.4708C67.8864 16.2192 67.5537 15.2607 66.8883 14.5953C66.2387 13.914 65.4387 13.5734 64.4881 13.5734C63.5375 13.5734 62.7374 13.914 62.0878 14.5953C61.4541 15.2607 61.1373 16.2192 61.1373 17.4708C61.1373 18.7224 61.4462 19.6889 62.0641 20.3701C62.6978 21.0355 63.49 21.3682 64.4406 21.3682Z" fill="#312E81"/>
<path d="M72.8935 17.4233C72.8935 16.0925 73.155 14.9122 73.6778 13.8823C74.2164 12.8525 74.9373 12.0604 75.8404 11.5059C76.7593 10.9514 77.7812 10.6741 78.906 10.6741C79.8883 10.6741 80.7438 10.8721 81.4726 11.2682C82.2172 11.6643 82.8113 12.1634 83.255 12.7654V10.888H86.6058V24.0536H83.255V22.1287C82.8272 22.7466 82.2331 23.2615 81.4726 23.6734C80.728 24.0695 79.8645 24.2675 78.8823 24.2675C77.7732 24.2675 76.7593 23.9823 75.8404 23.412C74.9373 22.8416 74.2164 22.0416 73.6778 21.0118C73.155 19.9661 72.8935 18.77 72.8935 17.4233ZM83.255 17.4708C83.255 16.6628 83.0965 15.9736 82.7797 15.4033C82.4628 14.8171 82.035 14.3735 81.4964 14.0725C80.9577 13.7556 80.3794 13.5972 79.7615 13.5972C79.1437 13.5972 78.5733 13.7477 78.0505 14.0487C77.5277 14.3497 77.0999 14.7933 76.7672 15.3795C76.4503 15.9499 76.2919 16.6311 76.2919 17.4233C76.2919 18.2154 76.4503 18.9125 76.7672 19.5146C77.0999 20.1008 77.5277 20.5523 78.0505 20.8692C78.5892 21.186 79.1595 21.3445 79.7615 21.3445C80.3794 21.3445 80.9577 21.194 81.4964 20.8929C82.035 20.5761 82.4628 20.1325 82.7797 19.5621C83.0965 18.9759 83.255 18.2788 83.255 17.4708Z" fill="#312E81"/>
<path d="M8.058 27.038C6.87933 27.038 5.926 26.7087 5.198 26.05C4.47 25.4087 4.106 24.438 4.106 23.138C4.106 22.5487 4.14933 22.02 4.236 21.552C4.34 21.0667 4.43533 20.5727 4.522 20.07C4.626 19.5673 4.678 18.978 4.678 18.302C4.678 17.678 4.496 17.0973 4.132 16.56C3.768 16.0053 3.05733 15.6153 2 15.39V13.622C3.05733 13.3967 3.768 13.0153 4.132 12.478C4.496 11.9407 4.678 11.3513 4.678 10.71C4.678 10.0513 4.626 9.47067 4.522 8.968C4.43533 8.46533 4.34 7.98 4.236 7.512C4.14933 7.02667 4.106 6.48933 4.106 5.9C4.106 4.58267 4.47 3.60333 5.198 2.962C5.926 2.32067 6.87933 2 8.058 2H9.436V3.872H8.448C7.72 3.872 7.16533 4.04533 6.784 4.392C6.42 4.72133 6.238 5.28467 6.238 6.082C6.238 6.58467 6.28133 7.07 6.368 7.538C6.45467 7.98867 6.54133 8.474 6.628 8.994C6.732 9.49667 6.784 10.0947 6.784 10.788C6.784 11.7067 6.55 12.4953 6.082 13.154C5.63133 13.8127 4.90333 14.2547 3.898 14.48V14.532C4.90333 14.7747 5.63133 15.2253 6.082 15.884C6.55 16.5427 6.784 17.3313 6.784 18.25C6.784 18.926 6.732 19.524 6.628 20.044C6.54133 20.5467 6.45467 21.032 6.368 21.5C6.28133 21.9507 6.238 22.436 6.238 22.956C6.238 23.736 6.42 24.2993 6.784 24.646C7.16533 24.9927 7.72 25.166 8.448 25.166H9.436V27.038H8.058Z" fill="#F97316"/>
<path d="M91.378 27.038C92.5567 27.038 93.51 26.7087 94.238 26.05C94.966 25.4087 95.33 24.438 95.33 23.138C95.33 22.5487 95.2867 22.02 95.2 21.552C95.096 21.0667 95.0007 20.5727 94.914 20.07C94.81 19.5673 94.758 18.978 94.758 18.302C94.758 17.678 94.94 17.0973 95.304 16.56C95.668 16.0053 96.3787 15.6153 97.436 15.39V13.622C96.3787 13.3967 95.668 13.0153 95.304 12.478C94.94 11.9407 94.758 11.3513 94.758 10.71C94.758 10.0513 94.81 9.47067 94.914 8.968C95.0007 8.46533 95.096 7.98 95.2 7.512C95.2867 7.02667 95.33 6.48933 95.33 5.9C95.33 4.58267 94.966 3.60333 94.238 2.962C93.51 2.32067 92.5567 2 91.378 2H90V3.872H90.988C91.716 3.872 92.2707 4.04533 92.652 4.392C93.016 4.72133 93.198 5.28467 93.198 6.082C93.198 6.58467 93.1547 7.07 93.068 7.538C92.9813 7.98867 92.8947 8.474 92.808 8.994C92.704 9.49667 92.652 10.0947 92.652 10.788C92.652 11.7067 92.886 12.4953 93.354 13.154C93.8047 13.8127 94.5327 14.2547 95.538 14.48V14.532C94.5327 14.7747 93.8047 15.2253 93.354 15.884C92.886 16.5427 92.652 17.3313 92.652 18.25C92.652 18.926 92.704 19.524 92.808 20.044C92.8947 20.5467 92.9813 21.032 93.068 21.5C93.1547 21.9507 93.198 22.436 93.198 22.956C93.198 23.736 93.016 24.2993 92.652 24.646C92.2707 24.9927 91.716 25.166 90.988 25.166H90V27.038H91.378Z" fill="#F97316"/>
</svg>
