<svg width="320" height="160" viewBox="0 0 320 160" fill="none" xmlns="http://www.w3.org/2000/svg">
<g clip-path="url(#clip0_2401_1634)">
<rect x="215" y="26" width="64" height="64" rx="1.6" fill="#FFEDD5"/>
<rect x="28.5" y="59.5" width="214" height="84" rx="1.5" stroke="#FED7AA"/>
<rect x="134" y="34" width="48" height="56" fill="white"/>
<mask id="mask0_2401_1634" style="mask-type:alpha" maskUnits="userSpaceOnUse" x="60" y="-57" width="196" height="200">
<rect x="60" y="-57" width="196" height="200" rx="32" fill="#D9D9D9"/>
</mask>
<g mask="url(#mask0_2401_1634)">
<path d="M144.104 36.7867C134.919 41.0014 135.243 54.402 134.702 59.5893C134.516 61.9369 131.996 59.4764 132.26 53.7474C132.523 48.0185 131.14 29.8439 146.615 22.337C162.09 14.8301 172.428 19.0445 174.996 23.3906C177.051 26.8674 175.589 30.239 174.601 31.4901C174.738 31.3464 175.358 31.0806 176.741 31.1671C178.47 31.2752 184.738 32.8962 183.874 41.8659C183.009 50.8357 183.009 57.8602 183.009 59.2651C183.009 60.67 181.28 62.0749 180.956 58.8328C180.632 55.5907 180.091 42.4063 173.715 37.7593C167.339 33.1123 153.29 32.572 144.104 36.7867Z" fill="#1E1B4B"/>
<path fill-rule="evenodd" clip-rule="evenodd" d="M165.747 17.6758C170.729 18.3537 174.204 20.5752 175.642 23.0091C177.309 25.8301 176.876 28.5849 176.091 30.4013C176.304 30.3977 176.536 30.4029 176.788 30.4186C177.776 30.4803 179.954 30.9558 181.788 32.6413C183.66 34.3626 185.072 37.2539 184.62 41.938C183.759 50.8718 183.759 57.8683 183.759 59.2646V59.2651C183.759 59.7624 183.609 60.2459 183.377 60.6321C183.157 60.9992 182.793 61.3888 182.291 61.518C182.023 61.5869 181.729 61.5754 181.447 61.4518C181.173 61.3316 180.958 61.1273 180.795 60.8905C180.482 60.4342 180.295 59.765 180.21 58.9075C180.181 58.6182 180.15 58.2571 180.115 57.8357C179.947 55.8357 179.666 52.4769 178.874 48.9891C177.907 44.731 176.225 40.5164 173.274 38.3655C170.258 36.1674 165.324 34.8861 159.938 34.6995C154.568 34.5134 148.881 35.4203 144.417 37.4684C140.13 39.4355 138.002 43.5677 136.889 48.0057C136.054 51.3365 135.819 54.6994 135.636 57.3085C135.575 58.1873 135.52 58.9805 135.449 59.6583C135.421 60.0048 135.345 60.3468 135.179 60.6282C134.999 60.934 134.681 61.2048 134.234 61.222C133.837 61.2373 133.512 61.0426 133.29 60.8529C133.058 60.6534 132.85 60.3854 132.669 60.0819C131.95 58.879 131.374 56.6719 131.51 53.713C131.535 53.1809 131.544 52.5266 131.555 51.7724C131.602 48.5856 131.675 43.613 133.007 38.5191C134.665 32.1813 138.294 25.5398 146.287 21.6622C154.133 17.8565 160.735 16.9939 165.747 17.6758ZM165.544 19.1621C160.876 18.527 154.572 19.3106 146.942 23.0118C139.461 26.6411 136.043 32.8403 134.458 38.8988C133.178 43.7924 133.106 48.519 133.058 51.7188C133.046 52.5056 133.035 53.2 133.009 53.7819C132.881 56.552 133.434 58.4396 133.956 59.3123C133.962 59.322 133.968 59.3316 133.974 59.341C134.029 58.7662 134.077 58.0826 134.13 57.3168C134.313 54.6972 134.562 51.1159 135.434 47.6409C136.59 43.0281 138.893 38.3527 143.792 36.1051C148.514 33.9385 154.444 33.0082 159.989 33.2004C165.518 33.392 170.797 34.7044 174.157 37.1533C177.582 39.6493 179.358 44.3504 180.336 48.6568C181.155 52.2618 181.447 55.7549 181.613 57.7412C181.647 58.1471 181.675 58.4901 181.702 58.7582C181.771 59.4436 181.9 59.8126 181.999 59.9882C182.026 59.9578 182.057 59.9164 182.091 59.8603C182.194 59.6893 182.259 59.4703 182.259 59.2651C182.259 57.8505 182.259 50.7987 183.127 41.794C183.54 37.5084 182.25 35.1042 180.773 33.7456C179.256 32.3511 177.436 31.962 176.694 31.9157C176.055 31.8757 175.624 31.9195 175.36 31.9758C175.228 32.0041 175.145 32.0338 175.102 32.0529C175.098 32.0546 175.095 32.0562 175.091 32.0577C174.812 32.2992 174.393 32.3032 174.109 32.0565C173.807 31.7938 173.764 31.3399 174.012 31.0254C174.883 29.9229 176.194 26.8917 174.35 23.7721C173.22 21.8599 170.242 19.8012 165.544 19.1621ZM175.074 32.0669C175.074 32.0669 175.075 32.066 175.078 32.0644C175.075 32.0661 175.074 32.0669 175.074 32.0669ZM134.31 59.7463C134.31 59.7464 134.309 59.7456 134.305 59.7434C134.309 59.745 134.31 59.7461 134.31 59.7463Z" fill="#1E1B4B"/>
<path d="M143.915 55.1304C145.133 53.978 148.196 52.4635 151.718 53.7146C152.835 54.0257 153.464 52.9903 152.805 52.3647C152.147 51.7391 150.83 50.9819 148.426 51.2782C146.022 51.5745 144.047 52.5952 143.191 53.7805C142.335 54.9658 142.697 56.2828 143.915 55.1304Z" fill="#1E1B4B"/>
<path fill-rule="evenodd" clip-rule="evenodd" d="M152.288 52.9084C151.797 52.4414 150.705 51.7529 148.518 52.0225C146.227 52.3049 144.487 53.2672 143.799 54.2195C143.786 54.2373 143.774 54.2551 143.762 54.2728C145.302 53.0483 148.41 51.7565 151.941 52.9977C152.085 53.0345 152.18 53.0217 152.232 53.0059C152.287 52.9888 152.311 52.9636 152.318 52.953C152.32 52.9512 152.321 52.9497 152.321 52.9485C152.317 52.9409 152.308 52.9273 152.288 52.9084ZM152.324 52.9554C152.324 52.9554 152.324 52.9546 152.323 52.9528C152.324 52.9545 152.324 52.9554 152.324 52.9554ZM152.323 52.9448C152.323 52.9444 152.323 52.9442 152.323 52.9442ZM153.322 51.8209L152.805 52.3646L153.322 51.8209C153.926 52.3955 153.966 53.2305 153.536 53.8287C153.111 54.4209 152.33 54.6635 151.517 54.4371C151.5 54.4324 151.484 54.4271 151.467 54.4213C148.268 53.2852 145.493 54.67 144.431 55.6752C144.086 56.0008 143.685 56.2723 143.246 56.3182C143.006 56.3433 142.751 56.3001 142.523 56.1551C142.299 56.0132 142.16 55.8106 142.081 55.615C141.93 55.2445 141.956 54.8267 142.044 54.4732C142.136 54.1003 142.317 53.7089 142.583 53.3413C143.607 51.923 145.817 50.844 148.334 50.5338C150.954 50.2107 152.496 51.0367 153.322 51.8209Z" fill="#1E1B4B"/>
<path d="M173.646 54.9327C172.922 53.945 170.09 52.2 166.04 53.484C165.25 53.945 164.23 53.1218 165.053 52.2987C165.876 51.4756 167.818 51.2451 170.024 51.4756C172.23 51.7061 173.514 52.8584 174.634 54.0108C175.753 55.1632 174.37 55.9205 173.646 54.9327Z" fill="#1E1B4B"/>
<path fill-rule="evenodd" clip-rule="evenodd" d="M166.907 50.7506C167.852 50.6065 168.957 50.61 170.102 50.7296C172.579 50.9885 174.021 52.3034 175.172 53.4882C175.525 53.8517 175.767 54.2713 175.801 54.7233C175.838 55.2029 175.628 55.6288 175.265 55.8863C174.559 56.3862 173.587 56.1205 173.041 55.3762C172.524 54.6703 170.062 53.0249 166.334 54.1779C165.662 54.5225 164.883 54.3749 164.411 53.9032C164.156 53.6478 163.982 53.2848 163.999 52.8649C164.017 52.4474 164.218 52.0726 164.522 51.7684C165.102 51.1884 165.985 50.8911 166.907 50.7506ZM167.133 52.2335C166.326 52.3564 165.826 52.5859 165.583 52.829C165.569 52.8427 165.558 52.8552 165.548 52.8666C165.581 52.8682 165.62 52.8611 165.662 52.8362C165.71 52.8083 165.761 52.7858 165.814 52.7691C168.551 51.9013 170.825 52.3107 172.364 53.049C171.698 52.6281 170.926 52.3239 169.946 52.2215C168.886 52.1107 167.916 52.1142 167.133 52.2335ZM174.45 54.6393C174.45 54.6393 174.45 54.6394 174.448 54.6393C174.449 54.6392 174.45 54.6392 174.45 54.6393Z" fill="#1E1B4B"/>
<path d="M155.872 77.0795C157.092 77.1291 158.264 78.6305 158.698 79.375C156.603 81.4223 149.871 80.0885 148.347 81.5154C146.823 82.9423 148.22 84.9276 147.458 84.9276C146.696 84.9276 145.107 82.1994 146.187 79.5937C147.266 76.988 154.348 77.0175 155.872 77.0795Z" fill="#1E1B4B"/>
<path fill-rule="evenodd" clip-rule="evenodd" d="M150.753 76.5943C152.914 76.2741 155.117 76.2981 155.903 76.3301C156.79 76.3662 157.557 76.911 158.096 77.4228C158.656 77.9544 159.1 78.5749 159.346 78.9973C159.52 79.2944 159.468 79.6712 159.222 79.9115C158.539 80.5796 157.546 80.9153 156.555 81.1086C155.546 81.3054 154.411 81.3766 153.344 81.427C153.143 81.4365 152.946 81.4452 152.752 81.4537C151.888 81.4919 151.091 81.5271 150.404 81.6113C149.987 81.6624 149.64 81.7285 149.367 81.8137C149.087 81.901 148.934 81.9928 148.86 82.0629C148.353 82.5373 148.307 83.0926 148.363 83.6863C148.375 83.8065 148.389 83.9177 148.404 84.0338C148.408 84.0655 148.412 84.0975 148.416 84.1302C148.434 84.2674 148.454 84.4372 148.454 84.5951C148.454 84.7322 148.443 85.0039 148.278 85.2529C148.067 85.5721 147.736 85.6776 147.458 85.6776C147.148 85.6776 146.89 85.5449 146.711 85.4204C146.523 85.289 146.352 85.1173 146.202 84.9316C145.901 84.5587 145.627 84.0585 145.425 83.4885C145.021 82.3489 144.867 80.8188 145.494 79.3066C145.875 78.387 146.738 77.7958 147.644 77.4044C148.569 77.0049 149.675 76.7541 150.753 76.5943ZM148.239 78.7814C147.466 79.1153 147.039 79.4976 146.88 79.8808C146.427 80.9743 146.528 82.1111 146.839 82.9871C146.844 83.0033 146.85 83.0195 146.856 83.0355C146.904 82.3826 147.13 81.6277 147.834 80.9679C148.141 80.6812 148.532 80.5026 148.92 80.3817C149.315 80.2588 149.76 80.179 150.221 80.1224C150.973 80.0304 151.844 79.9921 152.71 79.954C152.898 79.9457 153.086 79.9375 153.273 79.9287C154.341 79.8782 155.377 79.8099 156.268 79.6363C156.845 79.5238 157.312 79.3754 157.669 79.1908C157.497 78.9658 157.291 78.7268 157.063 78.5106C156.603 78.0731 156.174 77.8424 155.842 77.8289C155.104 77.7988 153.004 77.7771 150.973 78.0781C149.955 78.229 148.993 78.4555 148.239 78.7814ZM146.953 84.6181C146.953 84.6178 146.953 84.6134 146.954 84.6055C146.954 84.6144 146.953 84.6183 146.953 84.6181ZM147.585 84.2001C147.588 84.2017 147.59 84.2028 147.59 84.2029C147.59 84.203 147.588 84.2022 147.585 84.2001Z" fill="#1E1B4B"/>
<path d="M167.621 81.5361C164.954 81.2069 159.291 80.285 159.488 79.4289C159.456 78.968 160.279 77.5193 161.431 77.0912C162.583 76.6632 167.028 77.6839 169.103 78.2765C171.177 78.8692 172.988 79.5606 172.757 81.9971C172.527 84.4335 170.354 86.0468 170.485 85.1579C170.617 84.2689 170.288 81.8654 167.621 81.5361Z" fill="#1E1B4B"/>
<path fill-rule="evenodd" clip-rule="evenodd" d="M165.056 76.5633C166.598 76.844 168.252 77.2534 169.309 77.5554C170.332 77.8476 171.448 78.2014 172.266 78.8618C172.691 79.2046 173.046 79.6367 173.27 80.1882C173.494 80.7373 173.571 81.3623 173.504 82.0677C173.371 83.4823 172.679 84.6434 172.035 85.3355C171.729 85.6644 171.36 85.9673 170.995 86.0916C170.841 86.144 170.44 86.2478 170.08 85.9726C169.697 85.6789 169.716 85.2358 169.744 85.0479C169.79 84.7409 169.756 84.0827 169.441 83.4883C169.149 82.9391 168.606 82.4134 167.53 82.2804C166.183 82.1142 164.075 81.798 162.32 81.4126C161.449 81.2212 160.63 81.0056 160.029 80.772C159.736 80.658 159.443 80.5201 159.217 80.3478C159.048 80.2184 158.681 79.8833 158.738 79.3753C158.745 79.1045 158.84 78.8332 158.929 78.6292C159.044 78.3665 159.208 78.0815 159.41 77.8053C159.804 77.2663 160.406 76.6723 161.17 76.3882C161.628 76.2181 162.273 76.2201 162.88 76.2645C163.528 76.312 164.286 76.423 165.056 76.5633ZM162.77 77.7605C162.154 77.7154 161.811 77.7503 161.693 77.7943C161.305 77.9382 160.919 78.2825 160.621 78.6901C160.477 78.8873 160.37 79.0776 160.304 79.2295C160.3 79.2375 160.297 79.2453 160.294 79.2527C160.365 79.2878 160.457 79.3287 160.573 79.374C161.062 79.5643 161.789 79.7603 162.642 79.9475C164.336 80.3194 166.393 80.6288 167.713 80.7917C169.303 80.9881 170.259 81.8287 170.766 82.7858C170.982 83.1941 171.115 83.6176 171.187 84.0131C171.572 83.5002 171.932 82.7668 172.011 81.9264C172.06 81.4135 171.997 81.0385 171.881 80.7542C171.766 80.4722 171.582 80.2376 171.324 80.0289C170.775 79.5863 169.949 79.2981 168.897 78.9977C167.88 78.707 166.274 78.3097 164.787 78.039C164.043 77.9035 163.344 77.8025 162.77 77.7605ZM160.105 79.1368C160.106 79.1369 160.11 79.1401 160.116 79.1465C160.108 79.14 160.105 79.1368 160.105 79.1368Z" fill="#1E1B4B"/>
<path d="M159.16 88.9771C157.448 89.01 154.484 89.471 154.254 89.8661C154.419 90.3271 156.657 92.961 159.226 92.7635C161.794 92.5659 163.835 89.8332 163.473 89.5368C163.111 89.2405 160.872 88.9442 159.16 88.9771Z" fill="#1E1B4B"/>
<path fill-rule="evenodd" clip-rule="evenodd" d="M161.725 89.8772C160.938 89.7743 159.988 89.7113 159.174 89.727C158.364 89.7426 157.233 89.8611 156.278 90.025C155.965 90.0786 155.68 90.1356 155.437 90.1932C155.666 90.4355 155.957 90.7075 156.295 90.9667C157.132 91.6087 158.151 92.094 159.168 92.0157C160.216 91.9351 161.214 91.3237 161.932 90.6428C162.171 90.4161 162.365 90.1951 162.509 90.0043C162.287 89.9593 162.022 89.9159 161.725 89.8772ZM163.512 88.7222C163.631 88.766 163.803 88.8376 163.948 88.9564C164.162 89.1314 164.238 89.3623 164.258 89.5313C164.277 89.6918 164.252 89.8351 164.227 89.9364C164.175 90.1409 164.074 90.3443 163.966 90.5241C163.744 90.8949 163.396 91.3225 162.964 91.7316C162.11 92.5406 160.804 93.3943 159.283 93.5113C157.732 93.6306 156.348 92.8976 155.382 92.1568C154.89 91.7793 154.479 91.3794 154.177 91.0381C154.026 90.8675 153.898 90.7063 153.797 90.5646C153.71 90.4412 153.605 90.279 153.548 90.1183C153.473 89.91 153.495 89.6793 153.606 89.4882C153.695 89.3363 153.813 89.2385 153.889 89.1831C153.973 89.1227 154.061 89.0753 154.139 89.0382C154.296 88.964 154.479 88.9006 154.665 88.8457C155.041 88.7348 155.519 88.6333 156.024 88.5466C157.036 88.373 158.244 88.2446 159.145 88.2273C160.044 88.21 161.069 88.2787 161.92 88.3898C162.345 88.4454 162.74 88.5133 163.062 88.5904C163.222 88.6288 163.376 88.6724 163.512 88.7222Z" fill="#1E1B4B"/>
<path d="M158.831 99.1511C151.883 99.4145 148.525 94.1136 147.9 90.4918C147.281 88.3897 142.664 87.9237 142.928 92.0393C143.191 96.1549 148.756 106.691 159.489 106.526C170.223 106.362 174.174 94.7391 174.305 91.4466C174.437 88.1541 169.893 88.5822 169.432 91.4466C168.972 94.3111 165.778 98.8877 158.831 99.1511Z" fill="#1E1B4B"/>
<path fill-rule="evenodd" clip-rule="evenodd" d="M144.09 90.2367C143.83 90.5589 143.619 91.1016 143.676 91.9914C143.795 93.8425 145.158 97.3537 147.844 100.391C150.505 103.401 154.384 105.855 159.478 105.776C164.534 105.699 168.005 102.935 170.259 99.7282C172.533 96.493 173.497 92.9013 173.556 91.4167C173.582 90.7754 173.383 90.4133 173.159 90.209C172.921 89.9916 172.559 89.8673 172.125 89.887C171.233 89.9276 170.336 90.5496 170.173 91.5658C169.656 94.7796 166.167 99.6235 158.859 99.9005C151.452 100.181 147.859 94.5326 147.169 90.6694C147.077 90.396 146.843 90.1278 146.472 89.9298C146.087 89.7245 145.612 89.629 145.167 89.6792C144.729 89.7286 144.351 89.9132 144.09 90.2367ZM147.177 88.6062C147.822 88.9499 148.393 89.5141 148.619 90.28C148.627 90.3076 148.634 90.3357 148.639 90.3642C149.222 93.7434 152.347 98.6464 158.802 98.4016C165.388 98.1519 168.287 93.8426 168.692 91.3275C168.989 89.4792 170.595 88.455 172.057 88.3885C172.8 88.3548 173.579 88.5617 174.17 89.1006C174.775 89.6525 175.095 90.4716 175.055 91.4766C174.982 93.2845 173.905 97.1503 171.486 100.591C169.049 104.059 165.178 107.189 159.501 107.276C153.861 107.363 149.591 104.631 146.72 101.385C143.875 98.1663 142.324 94.3517 142.179 92.0872C142.105 90.9191 142.372 89.9768 142.923 89.2945C143.473 88.6136 144.238 88.2744 144.999 88.1886C145.752 88.1036 146.531 88.2615 147.177 88.6062Z" fill="#1E1B4B"/>
<path d="M149.479 59.3611C149.479 60.0794 148.897 60.6616 148.178 60.6616C147.46 60.6616 146.878 60.0794 146.878 59.3611C146.878 58.6428 147.46 58.0605 148.178 58.0605C148.897 58.0605 149.479 58.6428 149.479 59.3611Z" fill="#1E1B4B"/>
<path fill-rule="evenodd" clip-rule="evenodd" d="M148.178 58.8105C147.874 58.8105 147.628 59.057 147.628 59.3611C147.628 59.6651 147.874 59.9116 148.178 59.9116C148.483 59.9116 148.729 59.6651 148.729 59.3611C148.729 59.057 148.483 58.8105 148.178 58.8105ZM146.128 59.3611C146.128 58.2286 147.046 57.3105 148.178 57.3105C149.311 57.3105 150.229 58.2286 150.229 59.3611C150.229 60.4936 149.311 61.4116 148.178 61.4116C147.046 61.4116 146.128 60.4936 146.128 59.3611Z" fill="#1E1B4B"/>
<path d="M170.419 59.427C170.419 60.1453 169.837 60.7275 169.119 60.7275C168.401 60.7275 167.818 60.1453 167.818 59.427C167.818 58.7087 168.401 58.1265 169.119 58.1265C169.837 58.1265 170.419 58.7087 170.419 59.427Z" fill="#1E1B4B"/>
<path fill-rule="evenodd" clip-rule="evenodd" d="M169.119 58.8765C168.815 58.8765 168.568 59.1229 168.568 59.427C168.568 59.7311 168.815 59.9775 169.119 59.9775C169.423 59.9775 169.669 59.7311 169.669 59.427C169.669 59.1229 169.423 58.8765 169.119 58.8765ZM167.068 59.427C167.068 58.2945 167.986 57.3765 169.119 57.3765C170.251 57.3765 171.169 58.2945 171.169 59.427C171.169 60.5595 170.251 61.4775 169.119 61.4775C167.986 61.4775 167.068 60.5595 167.068 59.427Z" fill="#1E1B4B"/>
<path fill-rule="evenodd" clip-rule="evenodd" d="M152.401 57.3923C152.425 57.8058 152.109 58.1602 151.695 58.1839C148.884 58.3445 147.347 58.871 146.503 59.3568C146.085 59.5976 145.831 59.8314 145.672 60.0152C145.533 60.1744 145.458 60.3015 145.386 60.4243C145.373 60.4456 145.361 60.4667 145.348 60.4879C145.135 60.8431 144.675 60.9582 144.319 60.7451C143.964 60.532 143.849 60.0713 144.062 59.7161C144.07 59.7036 144.078 59.6885 144.089 59.6712C144.162 59.5457 144.304 59.302 144.539 59.0313C144.81 58.7201 145.194 58.3799 145.755 58.0568C146.87 57.4149 148.659 56.8549 151.61 56.6863C152.023 56.6627 152.378 56.9788 152.401 57.3923Z" fill="#1E1B4B"/>
<path fill-rule="evenodd" clip-rule="evenodd" d="M165.489 57.398C165.51 56.9843 165.862 56.6655 166.275 56.686C168.756 56.8086 170.505 57.325 171.695 57.9615C172.861 58.5856 173.548 59.3608 173.767 60.035C173.895 60.429 173.679 60.8521 173.285 60.98C172.891 61.1079 172.468 60.8922 172.34 60.4982C172.285 60.3274 171.961 59.8054 170.987 59.2842C170.036 58.7754 168.515 58.2986 166.201 58.1842C165.788 58.1637 165.469 57.8117 165.489 57.398Z" fill="#1E1B4B"/>
<path fill-rule="evenodd" clip-rule="evenodd" d="M129.33 59.2246C129.606 58.9364 130.008 58.7268 130.495 58.8009C130.858 58.856 131.172 59.0356 131.424 59.2293C131.682 59.4271 131.924 59.6766 132.145 59.9399C132.588 60.4656 133.01 61.1213 133.375 61.7281C133.512 61.9557 133.643 62.1805 133.766 62.393C133.861 61.5119 133.938 60.4983 133.98 59.8245C134.006 59.4111 134.362 59.0971 134.776 59.1231C135.189 59.1492 135.503 59.5054 135.477 59.9188C135.433 60.6225 135.351 61.6933 135.25 62.6191C135.2 63.0801 135.144 63.5182 135.082 63.8609C135.052 64.0304 135.018 64.194 134.978 64.3319C134.958 64.4001 134.932 64.4788 134.897 64.5557C134.871 64.6134 134.804 64.7559 134.667 64.8771C134.492 65.0331 134.267 65.0956 134.054 65.0721C133.874 65.0523 133.744 64.9767 133.678 64.9324C133.547 64.8448 133.451 64.7311 133.398 64.6649C133.278 64.5148 133.148 64.3086 133.022 64.1002C132.905 63.9055 132.774 63.677 132.636 63.4368C132.621 63.4101 132.605 63.3832 132.59 63.3562C132.433 63.0836 132.266 62.7937 132.09 62.5012C131.735 61.9103 131.361 61.3375 130.998 60.9054C130.816 60.6897 130.653 60.5279 130.512 60.4197C130.452 60.3738 130.403 60.3431 130.365 60.3227C130.316 60.3948 130.249 60.5192 130.177 60.7179C129.982 61.2543 129.832 62.0919 129.747 63.1538C129.58 65.2598 129.683 68.0439 130.039 70.5663C130.397 73.1084 130.951 74.3823 131.43 74.9234C131.651 75.1734 131.815 75.2221 131.906 75.2298C132.006 75.2383 132.152 75.2085 132.347 75.0676C132.665 74.8376 133.048 74.2947 133.413 73.5856C133.762 72.9084 134.037 72.1957 134.18 71.7558C134.296 71.4001 134.656 71.1841 135.025 71.2496C135.393 71.3151 135.657 71.6419 135.643 72.0158C135.568 74.0412 135.69 77.5143 136.307 81.2919C136.925 85.0768 138.03 89.1069 139.887 92.2867C143.622 98.6818 150.349 102.654 153.219 103.823C153.603 103.98 153.787 104.417 153.631 104.801C153.475 105.185 153.037 105.369 152.653 105.213C149.597 103.967 142.548 99.8181 138.592 93.0432C136.603 89.6379 135.458 85.4039 134.826 81.5337C134.455 79.2566 134.257 77.0846 134.173 75.2496C133.896 75.656 133.578 76.0286 133.225 76.2836C132.828 76.5708 132.332 76.7715 131.779 76.7244C131.218 76.6766 130.719 76.3836 130.307 75.9175C129.518 75.0264 128.919 73.37 128.553 70.7758C128.185 68.1619 128.074 65.2664 128.252 63.0346C128.34 61.9275 128.503 60.9316 128.767 60.2055C128.897 59.847 129.074 59.4912 129.33 59.2246ZM134.584 63.7453C134.584 63.7454 134.582 63.7439 134.579 63.7404C134.582 63.7434 134.584 63.7452 134.584 63.7453Z" fill="#1E1B4B"/>
<path fill-rule="evenodd" clip-rule="evenodd" d="M187.022 60.1048C186.841 60.1584 186.61 60.2835 186.335 60.507C186.019 60.7636 185.693 61.1108 185.376 61.5082C184.741 62.3035 184.198 63.228 183.898 63.8287C183.753 64.1186 183.438 64.2826 183.118 64.2353C182.797 64.188 182.543 63.9401 182.488 63.6207L181.83 59.8014C181.759 59.3932 182.033 59.0053 182.441 58.9349C182.85 58.8645 183.237 59.1384 183.308 59.5466L183.621 61.3624C183.803 61.0963 183.998 60.8294 184.203 60.5726C184.561 60.1249 184.961 59.6901 185.388 59.3431C185.808 59.0024 186.303 58.7038 186.849 58.6064C187.398 58.5083 187.846 58.7507 188.142 59.1021C188.408 59.4184 188.573 59.8393 188.685 60.2557C188.914 61.1031 189.002 62.2489 189.007 63.4495C189.015 65.8615 188.681 68.7429 188.233 70.4646C187.812 72.086 187.432 73.5147 186.967 74.498C186.734 74.9912 186.445 75.4518 186.052 75.768C185.624 76.1121 185.106 76.2576 184.536 76.1489C184.029 76.0525 183.637 75.7354 183.351 75.4103C183.328 75.3846 183.306 75.3584 183.284 75.3318C183.091 79.4199 182.356 85.1733 180.355 89.6145C177.65 95.6195 172.713 100.076 170.551 101.578C170.211 101.814 169.744 101.73 169.507 101.39C169.271 101.05 169.355 100.582 169.695 100.346C171.704 98.9507 176.424 94.6884 178.988 88.9985C181.55 83.3094 181.949 75.182 181.819 71.8194C181.804 71.4307 182.089 71.095 182.475 71.0463C182.861 70.9976 183.22 71.252 183.302 71.6323C183.414 72.1512 183.648 72.9437 183.973 73.6149C184.136 73.951 184.308 74.2268 184.477 74.4193C184.652 74.618 184.769 74.6665 184.816 74.6754C184.937 74.6984 185.012 74.6793 185.111 74.5994C185.245 74.4917 185.416 74.2691 185.611 73.8569C186.002 73.0294 186.347 71.7582 186.782 70.0871C187.19 68.5163 187.515 65.7675 187.507 63.4548C187.503 62.293 187.414 61.3028 187.237 60.646C187.16 60.3592 187.08 60.191 187.022 60.1048Z" fill="#1E1B4B"/>
<path fill-rule="evenodd" clip-rule="evenodd" d="M150.097 83.2158C150.188 82.8116 150.589 82.5575 150.994 82.6483C158.616 84.3593 164.537 83.3897 166.457 82.7359C166.85 82.6024 167.276 82.8121 167.409 83.2042C167.543 83.5963 167.333 84.0224 166.941 84.1559C164.735 84.9069 158.531 85.8776 150.665 84.1118C150.261 84.0211 150.007 83.6199 150.097 83.2158Z" fill="#1E1B4B"/>
<path fill-rule="evenodd" clip-rule="evenodd" d="M159.477 52.1622C159.843 52.3554 159.984 52.809 159.79 53.1754C158.844 54.9706 156.94 58.8425 155.274 62.4881C154.44 64.3108 153.67 66.0676 153.11 67.4748C152.83 68.1792 152.606 68.7865 152.453 69.2658C152.304 69.7317 152.248 70.0021 152.24 70.115C152.248 70.1294 152.264 70.155 152.296 70.1922C152.384 70.2947 152.541 70.4283 152.786 70.5847C153.273 70.8963 153.981 71.219 154.813 71.5309C156.469 72.1511 158.473 72.6754 159.813 72.9672C160.218 73.0553 160.475 73.4549 160.387 73.8596C160.298 74.2643 159.899 74.521 159.494 74.4329C158.112 74.132 156.034 73.5896 154.287 72.9356C153.419 72.6104 152.596 72.2441 151.977 71.8482C151.669 71.6509 151.379 71.4261 151.159 71.1698C150.941 70.9163 150.738 70.5689 150.738 70.1441C150.738 69.7897 150.866 69.3042 151.024 68.8103C151.192 68.2833 151.43 67.6395 151.716 66.9199C152.29 65.4791 153.072 63.6965 153.909 61.8644C155.584 58.2007 157.5 54.3023 158.463 52.4758C158.657 52.1094 159.11 51.969 159.477 52.1622Z" fill="#1E1B4B"/>
<path fill-rule="evenodd" clip-rule="evenodd" d="M130.755 65.3555C130.963 64.9972 131.422 64.8755 131.78 65.0835C133.603 66.1422 134.325 67.669 134.449 68.4451C134.514 68.8541 134.236 69.2387 133.827 69.3042C133.418 69.3696 133.033 69.0911 132.968 68.6821C132.916 68.3607 132.47 67.2183 131.027 66.3806C130.669 66.1727 130.547 65.7137 130.755 65.3555Z" fill="#1E1B4B"/>
<path fill-rule="evenodd" clip-rule="evenodd" d="M186.084 64.6478C186.319 64.9887 186.233 65.4558 185.892 65.691C184.549 66.6168 184.095 67.8739 184.035 68.2784C183.974 68.6882 183.593 68.9711 183.183 68.9104C182.773 68.8497 182.49 68.4683 182.551 68.0586C182.667 67.2778 183.327 65.6375 185.04 64.4561C185.381 64.221 185.848 64.3068 186.084 64.6478Z" fill="#1E1B4B"/>
<path fill-rule="evenodd" clip-rule="evenodd" d="M146.498 100.212C146.913 100.221 147.241 100.563 147.233 100.977C147.128 106.142 147.013 110.683 146.969 112.308C146.958 112.722 146.614 113.049 146.199 113.038C145.785 113.027 145.459 112.682 145.47 112.268C145.514 110.645 145.628 106.108 145.733 100.947C145.742 100.532 146.084 100.204 146.498 100.212Z" fill="#1E1B4B"/>
<path fill-rule="evenodd" clip-rule="evenodd" d="M171.795 98.7636C172.209 98.7774 172.533 99.1242 172.519 99.5382C172.31 105.81 172.957 110.128 173.287 111.448C173.388 111.85 173.144 112.257 172.742 112.357C172.34 112.458 171.933 112.213 171.832 111.811C171.46 110.322 170.808 105.859 171.02 99.4882C171.034 99.0742 171.381 98.7498 171.795 98.7636Z" fill="#1E1B4B"/>
<path d="M87.35 234.374C84.0136 217.868 81.9766 179.113 87.8768 156.144C93.7769 133.176 125.982 119.532 141.347 115.581C141.391 114.088 142.374 110.918 145.956 110.181C150.434 109.259 168.214 108.469 172.033 108.337C175.089 108.232 176.73 111.366 177.169 112.947L177.159 113.076C177.165 113.121 177.168 113.165 177.169 113.21C192.534 117.161 226.536 133.176 232.436 156.144C238.336 179.113 236.299 217.868 232.963 234.374L210.311 234.637L202.409 186.435V234.374L160.156 233.943L116.851 234.374L114.744 186.435L113.163 234.637L87.35 234.374Z" fill="#FFEDD5"/>
<path fill-rule="evenodd" clip-rule="evenodd" d="M177.854 112.614C177.592 111.744 177.036 110.532 176.147 109.516C175.203 108.437 173.828 107.525 172.007 107.588C170.091 107.654 164.685 107.884 159.197 108.214C153.737 108.542 148.109 108.972 145.805 109.446C142.16 110.197 140.903 113.174 140.648 114.988C132.894 117.04 121.213 121.421 110.662 128.097C99.8938 134.91 90.1715 144.197 87.1504 155.958C84.1758 167.537 83.2107 183.045 83.3997 197.692C83.5889 212.344 84.9344 226.209 86.6148 234.523C86.685 234.87 86.9883 235.12 87.3423 235.124L113.156 235.387C113.563 235.392 113.899 235.069 113.913 234.662L114.853 205.996L116.102 234.407C116.119 234.811 116.454 235.128 116.858 235.124L160.156 234.693L202.401 235.124C202.601 235.126 202.794 235.048 202.936 234.907C203.079 234.766 203.159 234.574 203.159 234.374V195.646L209.57 234.759C209.63 235.125 209.949 235.392 210.319 235.387L232.972 235.124C233.325 235.12 233.628 234.869 233.698 234.523C235.379 226.209 236.724 212.344 236.913 197.692C237.102 183.045 236.137 167.537 233.163 155.958C230.142 144.198 219.97 134.319 208.765 126.92C197.775 119.662 185.643 114.693 177.854 112.614ZM175.018 110.504C174.267 109.646 173.293 109.044 172.059 109.087C170.155 109.152 164.762 109.382 159.287 109.711C153.782 110.042 148.282 110.468 146.108 110.915C143.004 111.554 142.135 114.293 142.097 115.603C142.087 115.937 141.857 116.224 141.534 116.307C133.913 118.267 122.096 122.638 111.464 129.365C100.813 136.104 91.4822 145.123 88.6032 156.331C85.6776 167.72 84.7111 183.073 84.8996 197.673C85.0835 211.919 86.3659 225.376 87.9673 233.63L112.438 233.88L113.994 186.411C114.007 186.008 114.336 185.687 114.739 185.685C115.142 185.683 115.475 186 115.493 186.402L117.568 233.617L160.149 233.193H160.164L201.659 233.616V186.435C201.659 186.045 201.958 185.719 202.348 185.688C202.737 185.656 203.086 185.928 203.149 186.314L210.946 233.88L232.346 233.631C233.947 225.377 235.229 211.92 235.413 197.673C235.602 183.073 234.635 167.72 231.71 156.331C228.831 145.122 219.051 135.509 207.939 128.171C196.849 120.848 184.584 115.891 176.983 113.936C176.659 113.853 176.43 113.566 176.42 113.232C176.419 113.211 176.417 113.189 176.415 113.167C176.409 113.12 176.408 113.072 176.411 113.025C176.197 112.323 175.734 111.322 175.018 110.504Z" fill="#1E1B4B"/>
</g>
<path d="M126 73V57C126 46.3333 132.4 25 158 25C183.6 25 190 46.3333 190 57V72.5" stroke="#1E1B4B"/>
<path d="M131 53.5H128C127.172 53.5 126.5 54.1716 126.5 55V81C126.5 81.8284 127.172 82.5 128 82.5H131C133.485 82.5 135.5 80.4853 135.5 78V58C135.5 55.5147 133.485 53.5 131 53.5Z" fill="#F97316" stroke="#1E1B4B"/>
<path d="M126 80V80.5C123.515 80.5 121.5 78.4853 121.5 76V60C121.5 57.5147 123.515 55.5 126 55.5V56H126.5V80H126Z" fill="#1E1B4B" stroke="#1E1B4B"/>
<path d="M185 53.5H188C188.828 53.5 189.5 54.1716 189.5 55V81C189.5 81.8284 188.828 82.5 188 82.5H185C182.515 82.5 180.5 80.4853 180.5 78V58C180.5 55.5147 182.515 53.5 185 53.5Z" fill="#F97316" stroke="#1E1B4B"/>
<path d="M190 80V80.5C192.485 80.5 194.5 78.4853 194.5 76V60C194.5 57.5147 192.485 55.5 190 55.5V56H189.5V80H190Z" fill="#1E1B4B" stroke="#1E1B4B"/>
<circle cx="167" cy="94" r="6" fill="#F97316"/>
<path d="M187 81C184.703 91.4 172.231 94 171 94" stroke="#1E1B4B" stroke-linecap="round"/>
</g>
<defs>
<clipPath id="clip0_2401_1634">
<rect width="320" height="160" fill="white"/>
</clipPath>
</defs>
</svg>
